<svg width="1024" height="1024" viewBox="0 0 1024 1024" fill="none" xmlns="http://www.w3.org/2000/svg">
<path d="M94.7485 172.609C95.3805 172.56 96.116 172.495 96.748 172.494C117.241 172.458 137.783 172.483 158.273 172.498L274.825 172.509L618.45 172.484L825.005 172.504L892.19 172.446C904.31 172.423 916.79 172.285 928.895 172.615C933.3 172.734 938.9 175.709 941.98 178.834C946.79 183.708 948.335 189.596 948.35 196.289C948.43 243.722 948.415 291.203 948.405 338.631L948.36 602.015L948.41 746.61L948.4 792C948.405 798.69 948.745 810.14 948.235 816.47C947.8 821.495 945.57 826.195 941.955 829.705C932.935 838.615 919.415 836.27 907.615 836.29L870.71 836.425C870.47 838.475 869.855 841.045 869.42 843.105C868.245 849.25 867.1 859.655 858.675 859.89C847.84 860.195 836.89 859.92 826.025 859.935L794.025 859.945C788.705 859.94 779.175 860.085 774.285 859.31C767.61 858.255 756.455 842.055 752.365 836.48C721.4 836.205 690.435 836.165 659.475 836.365L471.43 836.325L351.46 836.36C325.627 836.315 298.061 835.795 272.358 836.37C266.016 843.53 259.653 853.35 251.861 858.8C250.923 859.455 245.106 860.115 243.61 860.105C218.706 859.86 193.785 860.12 168.882 859.955C159.379 859.895 157.179 855.88 155.376 847.055C154.665 843.58 153.928 839.905 153.214 836.4C139.519 835.945 125.511 836.45 111.407 836.325C97.275 836.205 81.4625 837.855 76.5595 819.76C74.9875 813.96 75.8905 802.29 75.9065 796.005L75.882 755.555L75.795 634.875L75.8905 341.527L75.7495 246.239C75.709 230.092 75.56 213.901 75.566 197.779C75.5685 192.712 76.084 186.672 79.148 182.608C83.995 176.179 87.1495 174.144 94.7485 172.609Z" fill="#1D1C1C"/>
<path d="M96.332 181.594C121.854 180.835 150.56 181.526 176.4 181.525L334.57 181.521L787.55 181.585C786.73 220.8 788.145 260.484 787.505 299.755C787.33 310.478 787.485 322.355 789.64 332.789C795.835 362.84 812.475 390.041 813.555 421.378C814.25 439.467 814.085 457.633 814.09 475.815L814.075 567.045L813.975 827.485L802.75 827.465L329.59 827.46H176.781C150.915 827.465 124.761 828.3 98.927 827.425C96.678 827.35 94.8935 827.165 92.848 826.16C89.7015 824.605 86.9 821.78 85.754 818.435C83.466 811.75 84.6305 766.895 84.639 756.3L84.6285 663.25L84.621 201.719C84.7005 191.215 85.0145 185.061 96.332 181.594Z" fill="#313232"/>
<path d="M744.53 226.035L756.345 226.016C756.995 246.433 756.285 270.137 756.255 290.909L756.34 412.745L756.29 784.815C754.765 785.29 746.975 785.06 744.845 785.035L744.665 354.765C744.61 311.955 745.03 268.823 744.53 226.035Z" fill="#1D1C1C"/>
<path d="M136.91 226.185C140.834 226.316 144.113 226.282 148.042 226.159C148.692 235.586 148.4 247.367 148.4 256.895L148.386 308.149L148.422 465.808L148.393 677.93L148.402 745.82C148.421 757.65 148.482 769.57 148.424 781.41C148.415 783.34 148.572 784.1 147.509 785.08L136.943 785.065L136.782 415.813L136.836 290.952C136.828 271.293 135.992 245.229 136.91 226.185Z" fill="#1D1C1C"/>
<path d="M120.594 226.07L132.16 226.29C131.425 285.57 132.072 346.147 132.083 405.565L132.069 785.06L120.562 784.97L120.594 226.07Z" fill="#1D1C1C"/>
<path d="M157.687 226.256L164.474 226.167L164.464 605.05L164.464 721.25C164.471 742.02 164.874 763.825 164.401 784.47C163.348 785.365 162.693 785.04 160.92 785.105L152.993 785.005V402.695L153.012 284.055L152.979 247.749C152.974 241.974 152.698 232.46 153.213 226.941C154.875 225.973 155.454 226.321 157.687 226.256Z" fill="#1D1C1C"/>
<path d="M169.085 226.235L180.475 226.15L180.552 785.125L169.086 785.145C168.363 757.59 169.063 726.505 169.06 698.69L169.074 520.665L169.055 325.942C169.05 293.454 168.338 258.524 169.085 226.235Z" fill="#1D1C1C"/>
<path d="M335.782 226.266L341.545 226.184L341.403 784.995L335.506 785.045C333.403 785.055 331.875 785.35 330.276 784.405C329.687 776.85 329.995 767.16 330.013 759.34L330.011 719.335L330.018 589.29L330.025 354.952C330.022 312.385 329.541 268.727 330.132 226.267L335.782 226.266Z" fill="#1D1C1C"/>
<path d="M314.005 226.331L325.096 226.442C325.59 233.449 325.388 243.052 325.391 250.252L325.375 289.76L325.39 411.665L325.384 784.99L313.992 785.155C313.654 763.485 313.92 740.985 313.917 719.28L313.93 594.295L314.005 226.331Z" fill="#1D1C1C"/>
<path d="M297.775 226.088C301.502 226.251 305.404 226.186 309.151 226.18L309.325 780.31L309.264 785.08L297.893 785.095C297.015 732.88 297.81 678.65 297.827 626.245L297.775 226.088Z" fill="#1D1C1C"/>
<path d="M442.071 226.184L453.449 226.248L453.436 785.025L442.052 785.06L442.012 484.032L442.006 317.463C442.001 287.163 441.715 256.444 442.071 226.184Z" fill="#1D1C1C"/>
<path d="M346.01 226.128L357.304 226.282C357.818 245.729 357.361 267.436 357.355 287.004L357.357 401.395L357.391 785.08L345.959 785.125L345.902 415.024L345.931 288.999C345.947 268.352 345.551 246.646 346.01 226.128Z" fill="#1D1C1C"/>
<path d="M721.055 226.259C722.115 226.26 722.46 226.349 723.515 226.505C724.78 229.911 723.955 331.972 723.955 342.853L724.01 785.105L715.375 785.26C714.02 785.25 714.075 785.285 712.805 784.835C711.645 780.38 712.54 755.39 712.555 748.555L712.54 653.045L712.51 226.266L721.055 226.259Z" fill="#1D1C1C"/>
<path d="M249.74 226.276L260.988 226.355L261.091 785.115L249.736 785.165C249.249 743.045 249.664 700.4 249.664 658.25L249.622 434.154L249.608 294.685C249.617 272.903 248.938 247.818 249.74 226.276Z" fill="#1D1C1C"/>
<path d="M410.142 226.185C413.761 226.384 417.763 226.377 421.418 226.443L421.408 785.085L409.986 785.115L409.995 414.097L410 290.43C410.006 270.357 409.329 245.885 410.142 226.185Z" fill="#1D1C1C"/>
<path d="M733.685 226.266L740.08 226.161C739.475 269.975 739.965 315.057 739.95 358.944V623.28L739.96 728.365C739.97 745.81 740.62 767.355 739.83 784.47C738.525 785.33 737.485 785.03 735.625 785.1L728.685 785.145C728.345 762.44 728.59 739.145 728.58 716.4L728.575 586.9L728.545 226.385L733.685 226.266Z" fill="#1D1C1C"/>
<path d="M233.533 226.112C237.281 226.209 241.16 226.107 244.922 226.059C245.505 245.857 244.966 268.328 244.967 288.347L244.959 411.275L244.998 785.065L233.637 785.01C233.317 763.68 233.573 741.61 233.558 720.215L233.567 589.29L233.533 226.112Z" fill="#1D1C1C"/>
<path d="M384.842 226.247C386.603 226.16 387.604 225.933 389.189 226.694C389.712 229.227 389.463 237.059 389.46 240.065L389.447 266.591V370.934L389.488 785.12L383.625 785.07C381.912 785.08 379.68 785.3 378.265 784.54C377.748 778.93 378.025 769.57 378.028 763.73L378.058 725.4L378.032 604.735L378.134 226.335L384.842 226.247Z" fill="#1D1C1C"/>
<path d="M426.074 226.439L437.236 226.315C438.049 246.288 437.435 270.851 437.44 291.072L437.427 414.157L437.415 785.11L426.031 785.095L426.074 226.439Z" fill="#1D1C1C"/>
<path d="M217.601 226.238L229.022 226.087L228.871 642.72C228.85 689.98 229.311 737.9 228.756 785.07L217.553 785.09C217.892 770.165 217.542 753.93 217.543 738.87L217.553 645.96L217.533 367.465L217.55 275.051C217.543 259.804 216.987 241.255 217.601 226.238Z" fill="#1D1C1C"/>
<path d="M265.695 226.3L277.012 226.382L277.027 785.065L265.615 785.075L265.695 226.3Z" fill="#1D1C1C"/>
<path d="M760.925 226.098C764.955 227.088 771.07 230.695 771.745 235.141C772.73 241.645 772.465 248.71 772.46 255.304L772.43 286.109L772.445 404.18L772.44 651.66L772.465 731.82C772.47 745.245 772.53 758.795 772.41 772.22C772.375 775.875 770.985 778.12 768.925 780.995C765.94 783.635 764.61 784.12 760.935 785.255L760.925 226.098Z" fill="#1D1C1C"/>
<path d="M362.092 226.293L373.427 226.389L373.405 785.005L362.026 785.07L362.092 226.293Z" fill="#1D1C1C"/>
<path d="M281.848 226.111L293.188 226.28L293.134 667.125L293.16 746.53C293.172 751.36 293.817 781.365 292.703 784.89L291.125 785.045H281.793L281.848 226.111Z" fill="#1D1C1C"/>
<path d="M682.885 226.266L691.63 226.104L691.625 785.035L683.875 785.06C682.49 785.085 681.865 785.26 680.69 784.59C680.605 783.965 680.54 783.335 680.49 782.705C680.16 778.745 680.39 771.325 680.39 767.135L680.4 736.19L680.375 637.47L680.23 309.041C680.22 286.67 680.075 250.451 680.2 227.052C680.38 226.835 680.56 226.617 680.74 226.4L682.885 226.266Z" fill="#1D1C1C"/>
<path d="M114.542 226.367L115.372 226.597C115.548 226.878 115.725 227.159 115.901 227.44C115.997 253.214 115.947 310.505 115.942 332.907L115.934 785.475C113.041 784.405 112.274 783.98 109.631 782.435C107.366 780.27 104.749 776.76 104.654 773.5C104.327 762.27 104.468 750.985 104.474 739.745L104.488 673.34L104.482 337.669L104.49 270.322C104.491 262.316 104.54 254.058 104.495 246.069C104.434 235.234 104.223 231.724 114.542 226.367Z" fill="#1D1C1C"/>
<path d="M583.845 226.11L595.215 226.167C595.09 249.16 595.085 272.155 595.205 295.148L595.18 451.75L595.255 784.995C592.005 785.165 587.385 785.025 584.03 785.035L583.865 427.348L583.875 292.106C583.875 271.007 583.16 246.867 583.845 226.11Z" fill="#1D1C1C"/>
<path d="M672.83 226.241C674.72 226.179 674.005 225.85 675.305 226.717C675.77 232.402 675.485 241.69 675.485 247.579L675.475 285.499L675.46 405.225L675.5 785.03L664.96 785.15C664.865 785.055 664.75 784.98 664.675 784.87C663.73 783.49 664.22 273.371 664.055 226.34L672.83 226.241Z" fill="#1D1C1C"/>
<path d="M552.365 226.241C555.825 226.353 559.575 226.298 563.065 226.312L563.35 784.995C559.755 785.14 555.6 785.07 551.955 785.1L551.91 345.125L551.87 266.018C551.86 260.947 551.315 229.516 552.365 226.241Z" fill="#1D1C1C"/>
<path d="M648.005 226.116L659.46 226.099C658.835 270.987 659.385 317.033 659.39 362.027L659.44 623.62L659.45 736.17L659.46 768.93C659.46 772.63 659.755 781.39 659.385 784.495L658.54 785.1L648.205 785.11C648.685 759.21 648.315 731.655 648.265 705.71L648.155 574.575L648.005 226.116Z" fill="#1D1C1C"/>
<path d="M616.025 226.398L627.34 226.273C626.695 251.959 627.145 280.997 627.295 306.863L627.265 391.51L627.4 782.625C627.39 783.86 627.46 783.455 627.075 784.58C624.475 785.63 619.19 785.145 616.21 785.045C615.66 763.08 616.125 738.87 616.12 716.805L616.095 586.8L616.025 226.398Z" fill="#1D1C1C"/>
<path d="M536.345 226.244L547.075 226.271C546.755 253.023 547.115 280.472 547.11 307.303L547.17 484.339L547.385 784.38L547.045 784.83C545.11 785.36 538.38 785.13 535.98 785.11L535.91 350.798L535.89 263.447C535.88 257.812 535.47 229.285 536.345 226.244Z" fill="#1D1C1C"/>
<path d="M520.04 226.122L531.39 226.226C530.605 242.893 531.26 264.681 531.19 281.779L531.34 421.298L531.455 784.035C531.335 784.665 531.47 784.29 530.75 784.995C527.81 785.335 523.305 785.12 520.225 785.06C519.82 765.12 520.12 744.175 520.105 724.17L520.085 606.85L520.04 226.122Z" fill="#1D1C1C"/>
<path d="M474.019 226.348L485.316 226.413C484.974 242.959 485.316 260.984 485.282 277.681L485.263 405.75L485.33 778.875C485.937 787.725 481.487 785.245 473.956 785.06L474.019 226.348Z" fill="#1D1C1C"/>
<path d="M575.975 226.241C577.465 226.129 577.58 225.955 578.85 226.632C579.36 230.245 579.06 238.859 579.055 242.873L579.025 275.691L579.07 388.381L579.135 785.02L570.375 785.04C568.48 784.915 569.125 785.33 568.06 784.28C567.66 778.755 567.945 769.31 567.945 763.58L567.915 725.715L567.895 603.53L567.705 226.315L575.975 226.241Z" fill="#1D1C1C"/>
<path d="M696.295 226.114L707.88 226.194C707.38 233.52 707.57 242.87 707.565 250.327V289.322L707.6 409.733L707.795 782.125C707.76 783.015 707.93 784.115 707.375 784.515C705.485 785.895 699.035 785.195 696.49 785.065L696.46 443.089L696.465 306.902C696.57 279.973 696.51 253.043 696.295 226.114Z" fill="#1D1C1C"/>
<path d="M211.31 226.254L212.266 226.277C212.954 228.932 212.713 256.994 212.716 260.857L212.659 360.495L212.66 785.04L205.875 785.045C204.165 785.105 203.418 785.265 201.813 784.625C201.28 781.705 201.508 772.955 201.509 769.595L201.515 740.56L201.515 631.28L201.531 226.254C204.784 226.355 208.054 226.287 211.31 226.254Z" fill="#1D1C1C"/>
<path d="M635.925 226.264L643.34 226.03C642.895 240.728 643.16 256.657 643.145 271.486L643.215 361.714L643.265 639.32L643.355 737.86L643.38 768.18C643.385 772.635 643.605 780.44 643.24 784.65L642.12 785.055C638.87 785.095 635.56 785.055 632.305 785.055L632.11 408.376L632.06 287.479L632.005 249.203C631.995 242.395 631.74 233.531 632.195 226.859C633.525 226.028 634.09 226.324 635.925 226.264Z" fill="#1D1C1C"/>
<path d="M394.089 226.159C397.897 226.161 401.706 226.141 405.514 226.097L405.488 785.06L394.099 785.09L394.089 226.159Z" fill="#1D1C1C"/>
<path d="M600 226.067L611.205 226.359L611.22 573.105C611.36 642.835 610.27 714.015 611.43 783.605C611.33 784.525 611.505 784.075 610.725 784.88C607.7 785.365 603.305 785.195 600.13 785.175L600 226.067Z" fill="#1D1C1C"/>
<path d="M458.178 226.03C461.893 226.258 465.769 226.294 469.505 226.381L469.466 785.095C465.726 785.02 461.797 785.08 458.04 785.07L458.178 226.03Z" fill="#1D1C1C"/>
<path d="M185.388 226.321C189.051 226.264 192.846 226.316 196.521 226.316C197.338 295.021 196.533 365.333 196.531 434.161L196.544 785.04L185.421 785.015L185.388 226.321Z" fill="#1D1C1C"/>
<path d="M508.07 226.24L515.46 226.074L515.45 607.565L515.455 724.25L515.51 762.165C515.52 769 515.765 777.75 515.315 784.445C514.425 785.305 514.26 785.005 512.625 785.08L504.97 785.05C504.195 775.28 504.59 760.21 504.615 750.16L504.61 695.955L504.575 516.465L504.615 319.036L504.585 260.265C504.555 250.57 504.105 236.283 504.71 227.073C505.925 225.958 505.905 226.341 508.07 226.24Z" fill="#1D1C1C"/>
<path d="M490.039 226.306C493.334 226.383 496.785 226.346 500.095 226.36L500.035 785.09L489.967 785.055L490.039 226.306Z" fill="#1D1C1C"/>
<path d="M928.645 181.626C937.75 183.748 939.155 190.798 939.285 198.851C939.51 212.555 939.445 226.26 939.445 239.967L939.435 313.744L939.46 540.43L939.47 722.445L939.48 781.955C939.48 792.225 939.55 802.59 939.4 812.815C939.32 818.105 936.8 823.565 931.88 825.76C926.565 828.135 918.88 827.49 913.125 827.45L902.165 827.505C903.02 790.77 902.39 751.045 902.345 714.165L902.375 534.365L902.365 465.625C902.37 432.094 901.09 404.574 914.175 372.937C919.2 360.786 925.345 343.009 927.285 330.148C929.805 313.479 928.69 294.189 928.685 277.073L928.645 181.626Z" fill="#313232"/>
<path d="M912.965 181.541L922.57 181.487L922.53 271.548C922.54 287.647 923.505 314.097 920.925 328.733C915.4 360.068 898.14 385.481 896.65 418.71C895.775 438.187 895.94 456.407 895.95 475.872L895.96 558.68L895.98 827.485L879.48 827.465L869.405 827.475L869.37 553.03L869.365 465.682C869.365 451.07 868.855 432.1 869.995 417.724C871.795 395.042 890.555 368.883 900.48 348.315C903.675 341.579 909.15 332.884 910.71 325.631C914.33 308.799 912.685 288.511 912.885 271.274C913.225 241.306 912.625 211.439 912.965 181.541Z" fill="#313232"/>
<path d="M793.745 181.489L803.495 181.473L803.505 258.485C803.51 273.397 802.155 315.09 806.3 326.871C815.79 353.843 841.165 385.073 846.06 414.04C847.455 422.282 847.195 437.913 847.21 446.698L847.225 491.565L847.165 641.13L847.23 778.215C847.24 786.07 848.255 822.06 846.885 827.19L845.625 827.455L820.7 827.475C821.235 795.77 820.735 762.475 820.7 730.685L820.785 583.065L820.76 487.403C820.8 464.653 820.94 442.285 819.935 419.593C818.97 387.46 800.88 359.289 795.595 328.407C792.72 311.607 793.875 289.435 793.855 272.008L793.745 181.489Z" fill="#313232"/>
<path d="M855.555 238.981C857.01 240.69 856.445 248.993 856.415 251.835C851.905 255.265 843.755 259.624 838.515 262.928V286.097C842.685 288.934 853.955 295.332 858.455 297.548C864.26 294.766 871.33 290.333 877 286.968C880.905 289.214 884.505 291.307 888.31 293.755C884.945 296.437 881.175 298.491 877.46 300.66C872.475 303.583 862.165 311.386 857.47 310.194C852.405 308.907 829.555 295.666 827.485 292.323C825.69 289.417 826.06 261.691 827.1 257.783C828.22 253.567 850.31 241.992 855.555 238.981Z" fill="#FEE1A3"/>
<path d="M861.02 238.734C865.15 240.684 884.88 252.644 888.42 255.481C891.81 258.202 890.47 283.085 890.27 288.895C888.145 289.132 880.845 284.262 878.53 282.858C878.425 276.342 878.49 269.645 878.47 263.113C874.045 259.887 865.935 255.602 860.825 252.388C860.83 247.836 860.895 243.284 861.02 238.734Z" fill="#FEE1A3"/>
<path d="M162.585 836.445L260.643 836.465L253.369 845.005C251.529 847.55 249.266 850.92 245.811 851.135C236.572 851.705 227.155 851.37 217.881 851.35C200.474 851.435 183.067 851.42 165.66 851.3C164.538 847.055 163.484 840.88 162.585 836.445Z" fill="#313232"/>
<path d="M763.33 836.405L861.435 836.43C860.645 840.765 859.745 845.08 858.74 849.37L858.22 850.77C856.785 851.825 842.22 851.405 839.335 851.405L799.58 851.445C792.825 851.445 782.215 851.73 775.735 850.87C772.73 848.045 766.32 839.92 763.33 836.405Z" fill="#313232"/>
</svg>
