<?xml version="1.0" encoding="UTF-8"?>
<svg id="Layer_2" data-name="Layer 2" xmlns="http://www.w3.org/2000/svg" xmlns:xlink="http://www.w3.org/1999/xlink" viewBox="0 0 2766.79 916.62">
  <defs>
    <style>
      .cls-1 {
        fill: none;
      }

      .cls-2 {
        mask: url(#mask);
      }

      .cls-3 {
        fill: #fff;
      }

      .cls-4 {
        fill: #f6a000;
      }

      .cls-5 {
        fill: #ec6907;
      }

      .cls-6 {
        clip-path: url(#clippath);
      }
    </style>
    <clipPath id="clippath">
      <rect class="cls-1" x="983.21" y="167.34" width="1783.58" height="559.13"/>
    </clipPath>
    <mask id="mask" x="983.14" y="167.33" width="1783.61" height="559.15" maskUnits="userSpaceOnUse">
      <g id="mask0_1667_15730" data-name="mask0 1667 15730">
        <path class="cls-3" d="M2766.72,167.34H983.14v559.14h1783.58V167.34Z"/>
      </g>
    </mask>
  </defs>
  <g class="cls-6">
    <g class="cls-2">
      <g>
        <path class="cls-3" d="M1559.82,726.46c-1.93,0-3.86,0-5.82-.06-54.95,1.08-98.18-13.75-128.64-44.21-30.47-30.46-45.32-73.73-44.18-128.62-1.14-54.88,13.73-98.15,44.18-128.62,30.45-30.46,73.76-45.36,128.64-44.21,54.96-1.14,98.19,13.74,128.64,44.21,30.46,30.47,45.32,73.73,44.18,128.62,1.14,54.89-13.74,98.18-44.21,128.64-29.37,29.38-70.67,44.25-122.8,44.25M1554.01,671.03h.63c39.46.87,69.37-8.52,88.84-27.97,19.47-19.46,28.89-49.37,27.99-88.86v-1.26c.91-39.48-8.51-69.36-27.97-88.83-19.45-19.47-49.35-28.89-88.87-27.99h-1.26c-39.48-.89-69.39,8.52-88.87,27.99-19.47,19.48-28.87,49.36-27.97,88.83v1.27c-.9,39.47,8.52,69.36,27.97,88.83,19.45,19.47,49.37,28.84,88.87,28h.63Z"/>
        <path class="cls-3" d="M1897.05,726.48c-1.76,0-3.52-.17-5.26-.5-45.28-8.7-73.42-48.11-73.42-102.84V195.16c0-7.34,2.92-14.38,8.11-19.57,5.19-5.19,12.23-8.11,19.58-8.11s14.38,2.92,19.57,8.11c5.19,5.19,8.11,12.23,8.11,19.57v427.98c0,19.61,4.95,43.94,28.5,48.47,6.76,1.29,12.8,5.06,16.93,10.57,4.13,5.51,6.07,12.36,5.41,19.22-.65,6.86-3.83,13.22-8.92,17.86-5.09,4.64-11.73,7.21-18.62,7.21Z"/>
        <path class="cls-3" d="M1149.5,726.4c-7.13,0-13.66-.2-19.3-.48-49.34-2.49-98.6-13.96-131.74-30.67-3.25-1.64-6.14-3.9-8.51-6.65-2.37-2.75-4.18-5.95-5.32-9.4-1.14-3.46-1.59-7.1-1.31-10.72.27-3.62,1.25-7.16,2.89-10.41,3.3-6.56,9.08-11.53,16.05-13.83,3.46-1.14,7.1-1.59,10.72-1.31,3.62.27,7.16,1.25,10.41,2.89,54.06,27.26,166.95,35.85,212.76,7.64,15.56-9.58,17.56-19.92,17.56-27.86,0-30.82-32.84-39.53-111.39-48.48-33.94-3.87-69.04-7.86-96.85-18.95-47.95-19.12-58-53.5-58-78.95-.26-14.44,3.19-28.7,10.02-41.43,6.83-12.73,16.81-23.49,28.98-31.26,60.95-41.09,183.98-26.35,249.38.1,3.37,1.36,6.44,3.38,9.03,5.93,2.59,2.55,4.66,5.58,6.08,8.93,1.42,3.35,2.16,6.94,2.2,10.58.03,3.63-.66,7.24-2.02,10.61-1.36,3.37-3.38,6.44-5.93,9.03-2.55,2.59-5.58,4.66-8.93,6.08-3.34,1.42-6.94,2.17-10.57,2.2-3.64.03-7.25-.66-10.61-2.02-72.47-29.31-165.77-27.04-197.67-5.52-4.65,2.7-8.47,6.62-11.05,11.35-2.58,4.72-3.81,10.06-3.56,15.43,0,26.56,31.16,34.39,105.7,42.88,35.17,4.01,71.55,8.14,100.65,20.07,49.45,20.28,59.84,56.55,59.84,83.42,0,31.39-15.18,57.35-43.9,75.01-34.64,21.31-81.94,25.8-115.63,25.8"/>
        <path class="cls-3" d="M2350.46,417.76c-37.83,0-67.75-10.75-88.98-31.98-22.02-22.03-32.77-53.38-31.93-93.23-.83-39.84,9.91-71.21,31.93-93.22,22.01-22.02,53.34-32.78,93.23-31.94,59.28-1.25,89.42,24.01,104.27,45.43,1.47,1.97,2.54,4.22,3.13,6.61.59,2.39.69,4.88.29,7.31-.39,2.43-1.27,4.76-2.58,6.84-1.31,2.08-3.03,3.88-5.06,5.29-2.02,1.4-4.31,2.39-6.72,2.89-2.41.5-4.9.51-7.31.03-2.42-.48-4.71-1.44-6.74-2.83s-3.77-3.17-5.1-5.24c-14.2-20.44-38.95-30.45-73.73-29.65h-.83c-29.65-.7-52.16,6.46-66.9,21.2-14.74,14.75-21.86,37.24-21.19,66.88v.84c-.67,29.65,6.46,52.15,21.19,66.89,14.74,14.74,37.26,21.91,66.9,21.2h.83c34.76.79,59.54-9.18,73.73-29.65,1.37-1.98,3.12-3.67,5.14-4.97,2.03-1.3,4.28-2.19,6.66-2.62,2.37-.43,4.8-.39,7.15.12,2.35.51,4.58,1.48,6.56,2.85,1.98,1.37,3.67,3.12,4.97,5.14,1.3,2.02,2.19,4.29,2.62,6.65.43,2.37.39,4.8-.12,7.15-.51,2.35-1.48,4.58-2.85,6.56-14.85,21.41-44.91,46.64-104.27,45.43-1.43.03-2.85.05-4.26.05"/>
        <path class="cls-3" d="M2153.62,204.14h-174.25c-4.86,0-9.53-1.93-12.96-5.37-3.44-3.44-5.37-8.1-5.37-12.96s1.93-9.52,5.37-12.96c3.43-3.44,8.1-5.37,12.96-5.37h174.26c4.86,0,9.53,1.93,12.96,5.37,3.44,3.44,5.37,8.1,5.37,12.96s-1.93,9.52-5.37,12.96c-3.43,3.44-8.1,5.37-12.96,5.37"/>
        <path class="cls-3" d="M2155.95,417.78h-174.26c-4.86,0-9.53-1.93-12.96-5.37-3.44-3.44-5.37-8.1-5.37-12.96s1.93-9.52,5.37-12.96c3.43-3.44,8.1-5.37,12.96-5.37h174.26c4.86,0,9.53,1.93,12.96,5.37,3.44,3.44,5.37,8.1,5.37,12.96s-1.93,9.52-5.37,12.96c-3.43,3.44-8.1,5.37-12.96,5.37Z"/>
        <path class="cls-3" d="M2155.95,310.95h-174.26c-4.86,0-9.53-1.93-12.96-5.37-3.44-3.44-5.37-8.1-5.37-12.96s1.93-9.52,5.37-12.96c3.43-3.44,8.1-5.37,12.96-5.37h174.26c4.86,0,9.53,1.93,12.96,5.37,3.44,3.44,5.37,8.1,5.37,12.96s-1.93,9.52-5.37,12.96c-3.43,3.44-8.1,5.37-12.96,5.37Z"/>
        <path class="cls-3" d="M2635.76,417.62c-19.88-.01-39.56-4.04-57.85-11.85-40.69-18.27-62.29-58.45-61.16-113.28-.83-39.78,9.89-71.09,31.88-93.09,21.99-21.99,53.31-32.69,93.09-31.88,39.81-.85,71.1,9.9,93.09,31.88,21.99,21.99,32.72,53.31,31.9,93.13.83,39.78-9.91,71.1-31.89,93.09-21.98,21.99-53.18,32.76-92.88,31.9-2.06.09-4.12.14-6.18.14M2637.53,204.14c-27.73,0-48.9,7.13-62.98,21.2-14.7,14.71-21.81,37.17-21.14,66.74v.84c-.63,27.82,5.68,64.22,39.22,79.29,15.23,6.45,31.71,9.4,48.22,8.62h1.28c29.57.7,52.05-6.45,66.76-21.15,14.71-14.71,21.83-37.17,21.15-66.74v-.83c.67-29.58-6.44-52.05-21.16-66.76-14.71-14.71-37.25-21.88-66.76-21.16h-.83c-1.27-.03-2.53-.04-3.78-.05"/>
      </g>
    </g>
  </g>
  <path class="cls-3" d="M1030.09,835.57l-1.27,4.55h-25.35l-3.27,23.17h21.99l-.63,4.54h-21.99l-3.63,25.35h26.71l-.63,4.64h-32.16l8.81-62.24h31.44ZM1047.7,850.29l-6.72,47.52h-5.27l6.72-47.52h5.27ZM1047.15,837.03c-1.09,0-1.97-.31-2.63-.91-.67-.66-1-1.51-1-2.54,0-1.21.4-2.21,1.18-3,.85-.78,1.88-1.18,3.09-1.18,1.09,0,1.96.33,2.63,1,.67.61,1,1.42,1,2.45,0,1.21-.43,2.21-1.27,2.99-.79.79-1.79,1.19-3,1.19ZM1088.08,849.3c3.57,0,6.33,1,8.27,2.99,1.94,2,2.9,4.85,2.9,8.54,0,1.09-.09,2.24-.27,3.46l-4.72,33.52h-5.27l4.72-33.34c.12-.72.18-1.73.18-3,0-5.15-2.3-7.72-6.91-7.72-6.12,0-11.99,5.21-17.62,15.63l-4,28.44h-5.27l6.72-47.52h4.54l-1.27,11.81c2.48-4.12,5.24-7.27,8.26-9.45,3.03-2.24,6.27-3.36,9.72-3.36ZM1150.42,860.74c0,5.82-2.84,10.14-8.54,12.99-5.69,2.79-13.78,4.57-24.26,5.36v.55c0,4.96,1.06,8.63,3.18,10.99,2.18,2.36,5.15,3.54,8.9,3.54,2.48,0,4.75-.36,6.81-1.09,2.12-.78,4.33-2,6.63-3.63l2.36,3.72c-2.54,1.88-5.15,3.31-7.81,4.27-2.6.91-5.39,1.36-8.36,1.36-5.45,0-9.69-1.67-12.72-5-3.03-3.33-4.55-8.03-4.55-14.08,0-4.79.85-9.51,2.54-14.17,1.76-4.66,4.45-8.54,8.09-11.63,3.7-3.09,8.24-4.63,13.63-4.63,4.42,0,7.87,1.09,10.36,3.27,2.48,2.12,3.72,4.85,3.72,8.18ZM1136.33,853.65c-5.45,0-9.72,2.09-12.81,6.27-3.03,4.18-4.9,9.18-5.63,14.99,9.09-.73,15.87-2.18,20.35-4.36,4.49-2.18,6.72-5.39,6.72-9.63,0-2.06-.72-3.78-2.18-5.18-1.46-1.4-3.61-2.09-6.46-2.09ZM1224.74,835.57l-1.27,4.55h-24.81l-3.45,24.26h21.53l-.63,4.54h-21.53l-4.09,28.89h-5.45l8.81-62.24h30.89ZM1236.77,850.29l-6.73,47.52h-5.27l6.73-47.52h5.27ZM1236.23,837.03c-1.09,0-1.97-.31-2.64-.91-.67-.66-1-1.51-1-2.54,0-1.21.4-2.21,1.19-3,.85-.78,1.88-1.18,3.09-1.18,1.09,0,1.97.33,2.63,1,.67.61,1,1.42,1,2.45,0,1.21-.42,2.21-1.27,2.99-.78.79-1.79,1.19-2.99,1.19ZM1274.34,849.3c1.76,0,3.27.21,4.55.63l-1.45,5c-1.09-.36-2.37-.55-3.82-.55-3.33,0-6.21,1.36-8.63,4.09-2.37,2.72-4.57,6.81-6.63,12.26l-3.91,27.07h-5.27l6.72-47.52h4.54l-1.18,11.54c3.69-8.36,8.73-12.54,15.08-12.54ZM1336.32,849.3c3.15,0,5.6,1.03,7.36,3.09,1.82,2,2.73,4.79,2.73,8.36,0,.97-.09,2.06-.27,3.27l-4.81,33.8h-5.27l4.72-33.34c.18-1.21.27-2.3.27-3.27,0-4.96-2.09-7.45-6.27-7.45-2.79,0-5.48,1.36-8.09,4.08-2.6,2.73-5.24,6.48-7.9,11.27l-4.09,28.71h-5.27l4.72-33.34c.18-1.21.27-2.3.27-3.27,0-4.96-2.09-7.45-6.27-7.45-2.84,0-5.57,1.39-8.17,4.18-2.54,2.72-5.15,6.54-7.81,11.45l-4,28.44h-5.27l6.72-47.52h4.54l-1.27,11.72c5.09-8.48,10.69-12.72,16.81-12.72,3.09,0,5.54,1.03,7.36,3.09,1.88,2.06,2.79,4.96,2.73,8.72,4.91-7.87,10.42-11.81,16.54-11.81ZM1383.52,849.3c2.97,0,5.64.33,8,1,2.36.67,4.79,1.64,7.27,2.91l-5,34.25c-.12.67-.18,1.57-.18,2.73,0,1.27.21,2.3.63,3.09.48.72,1.27,1.33,2.36,1.81l-1.54,3.73c-2.12-.48-3.73-1.36-4.81-2.64-1.09-1.33-1.61-3.33-1.55-5.99-1.82,2.66-4,4.78-6.54,6.36-2.49,1.52-5.18,2.28-8.09,2.28-4.72,0-8.41-1.64-11.08-4.91-2.6-3.33-3.91-7.85-3.91-13.54,0-4.72.85-9.48,2.54-14.26,1.69-4.79,4.36-8.78,7.99-11.99,3.7-3.21,8.33-4.81,13.9-4.81ZM1383.71,853.56c-4.3,0-7.9,1.39-10.81,4.18-2.84,2.79-4.94,6.24-6.27,10.36-1.27,4.12-1.91,8.21-1.91,12.27,0,4.61.88,8.09,2.63,10.45,1.76,2.36,4.27,3.54,7.54,3.54,2.85,0,5.39-.85,7.63-2.55,2.3-1.69,4.48-4.18,6.54-7.45l4.09-28.62c-2.9-1.45-6.05-2.18-9.45-2.18ZM1478.74,830.94l-9.45,66.87h-4.55l.73-9.63c-1.88,3.21-4.12,5.79-6.72,7.72-2.6,1.94-5.6,2.91-9,2.91-4.6,0-8.2-1.67-10.81-5-2.55-3.33-3.82-7.91-3.82-13.72,0-4.6.76-9.27,2.27-13.99,1.51-4.72,3.93-8.69,7.27-11.9,3.33-3.27,7.57-4.9,12.72-4.9s9.57,2.18,12.54,6.54l3.63-25.53,5.18.64ZM1458.11,853.65c-4.06,0-7.42,1.42-10.08,4.27-2.6,2.78-4.48,6.24-5.63,10.36-1.15,4.06-1.73,8.09-1.73,12.08,0,4.55.85,8.02,2.54,10.45,1.76,2.36,4.18,3.54,7.27,3.54,3.27,0,6.12-1.09,8.54-3.27,2.42-2.18,4.87-5.42,7.36-9.72l3-20.72c-1.34-2.18-2.88-3.87-4.64-5.09-1.75-1.27-3.97-1.91-6.63-1.91ZM1525.99,860.74c0,5.82-2.84,10.14-8.54,12.99-5.69,2.79-13.78,4.57-24.26,5.36v.55c0,4.96,1.06,8.63,3.18,10.99,2.18,2.36,5.15,3.54,8.9,3.54,2.48,0,4.75-.36,6.81-1.09,2.12-.78,4.33-2,6.63-3.63l2.37,3.72c-2.54,1.88-5.15,3.31-7.81,4.27-2.6.91-5.39,1.36-8.36,1.36-5.45,0-9.69-1.67-12.72-5-3.03-3.33-4.54-8.03-4.54-14.08,0-4.79.85-9.51,2.54-14.17,1.75-4.66,4.45-8.54,8.09-11.63,3.7-3.09,8.24-4.63,13.63-4.63,4.42,0,7.87,1.09,10.36,3.27,2.48,2.12,3.72,4.85,3.72,8.18ZM1511.91,853.65c-5.45,0-9.72,2.09-12.81,6.27-3.03,4.18-4.91,9.18-5.64,14.99,9.09-.73,15.87-2.18,20.36-4.36,4.48-2.18,6.72-5.39,6.72-9.63,0-2.06-.73-3.78-2.18-5.18-1.45-1.4-3.61-2.09-6.45-2.09ZM1560.22,849.3c1.75,0,3.27.21,4.54.63l-1.45,5c-1.09-.36-2.36-.55-3.82-.55-3.33,0-6.21,1.36-8.63,4.09-2.36,2.72-4.57,6.81-6.63,12.26l-3.91,27.07h-5.27l6.72-47.52h4.55l-1.19,11.54c3.7-8.36,8.73-12.54,15.09-12.54ZM1623.95,834.58c3.33,0,6.21.48,8.63,1.45,2.42.97,4.69,2.42,6.81,4.36l-3.18,3.27c-1.94-1.57-3.85-2.69-5.73-3.36-1.81-.72-3.93-1.09-6.36-1.09-5.64,0-10.27,1.82-13.9,5.45-3.63,3.57-6.3,8.06-8,13.44-1.64,5.33-2.45,10.69-2.45,16.08,0,6.54,1.45,11.48,4.36,14.81,2.9,3.33,6.78,5,11.63,5,2.97,0,5.54-.42,7.72-1.27,2.18-.91,4.45-2.24,6.82-4l2.63,3.82c-5.27,4.18-11.11,6.27-17.53,6.27s-11.57-2.15-15.44-6.46c-3.88-4.36-5.82-10.51-5.82-18.44,0-6.05,1.03-12.11,3.09-18.17,2.12-6.06,5.42-11.09,9.91-15.08,4.48-4.06,10.08-6.09,16.81-6.09ZM1648.67,889.81c-.06.31-.09.73-.09,1.27,0,1.09.24,1.91.73,2.45.48.48,1.27.72,2.36.72.97,0,2.12-.24,3.46-.72l1.18,4c-1.88.85-3.7,1.27-5.45,1.27-2.36,0-4.21-.61-5.54-1.82-1.27-1.27-1.9-3.12-1.9-5.54,0-.42.06-1.24.18-2.45l8.18-58.05,5.27-.73-8.36,59.6ZM1680.31,850.29l-6.72,47.52h-5.27l6.72-47.52h5.27ZM1679.76,837.03c-1.09,0-1.97-.31-2.64-.91-.66-.66-1-1.51-1-2.54,0-1.21.4-2.21,1.18-3,.85-.78,1.88-1.18,3.09-1.18,1.09,0,1.97.33,2.64,1,.66.61,1,1.42,1,2.45,0,1.21-.42,2.21-1.27,2.99-.79.79-1.79,1.19-3,1.19ZM1746.13,849.3c3.15,0,5.6,1.03,7.36,3.09,1.81,2,2.73,4.79,2.73,8.36,0,.97-.09,2.06-.27,3.27l-4.82,33.8h-5.27l4.72-33.34c.18-1.21.27-2.3.27-3.27,0-4.96-2.09-7.45-6.27-7.45-2.79,0-5.48,1.36-8.09,4.08-2.6,2.73-5.24,6.48-7.91,11.27l-4.08,28.71h-5.27l4.72-33.34c.18-1.21.27-2.3.27-3.27,0-4.96-2.09-7.45-6.27-7.45-2.85,0-5.57,1.39-8.17,4.18-2.54,2.72-5.15,6.54-7.81,11.45l-4,28.44h-5.27l6.72-47.52h4.55l-1.27,11.72c5.09-8.48,10.69-12.72,16.81-12.72,3.09,0,5.54,1.03,7.36,3.09,1.88,2.06,2.79,4.96,2.73,8.72,4.9-7.87,10.42-11.81,16.53-11.81ZM1793.35,849.3c2.97,0,5.63.33,8,1,2.36.67,4.79,1.64,7.27,2.91l-5,34.25c-.12.67-.18,1.57-.18,2.73,0,1.27.21,2.3.64,3.09.48.72,1.27,1.33,2.36,1.81l-1.54,3.73c-2.12-.48-3.73-1.36-4.82-2.64-1.09-1.33-1.6-3.33-1.54-5.99-1.82,2.66-4,4.78-6.54,6.36-2.48,1.52-5.18,2.28-8.09,2.28-4.72,0-8.42-1.64-11.09-4.91-2.6-3.33-3.91-7.85-3.91-13.54,0-4.72.85-9.48,2.54-14.26,1.7-4.79,4.36-8.78,8-11.99,3.7-3.21,8.33-4.81,13.9-4.81ZM1793.53,853.56c-4.3,0-7.91,1.39-10.81,4.18-2.85,2.79-4.94,6.24-6.27,10.36-1.27,4.12-1.91,8.21-1.91,12.27,0,4.61.88,8.09,2.64,10.45,1.76,2.36,4.27,3.54,7.54,3.54,2.85,0,5.39-.85,7.63-2.55,2.3-1.69,4.49-4.18,6.54-7.45l4.09-28.62c-2.91-1.45-6.06-2.18-9.45-2.18ZM1845.82,849.3c1.75,0,3.27.21,4.54.63l-1.45,5c-1.09-.36-2.37-.55-3.82-.55-3.33,0-6.2,1.36-8.63,4.09-2.36,2.72-4.57,6.81-6.63,12.26l-3.91,27.07h-5.27l6.72-47.52h4.55l-1.18,11.54c3.7-8.36,8.72-12.54,15.08-12.54ZM1861.28,886.09c-.12,1.09-.18,1.85-.18,2.27,0,3.94,1.88,5.9,5.63,5.9,2.3,0,4.88-.76,7.72-2.27l1.82,3.91c-3.27,1.94-6.67,2.91-10.18,2.91-3.21,0-5.72-.85-7.54-2.55-1.82-1.75-2.73-4.23-2.73-7.45,0-.61.06-1.51.18-2.73l4.45-31.52h-8l.63-4.27h8.09l2.64-11.54,4.18-.46-1.73,11.99h12.26l-1.27,4.27h-11.54l-4.45,31.52ZM1897.15,850.29l-6.73,47.52h-5.27l6.73-47.52h5.27ZM1896.61,837.03c-1.09,0-1.97-.31-2.64-.91-.67-.66-1-1.51-1-2.54,0-1.21.39-2.21,1.18-3,.85-.78,1.88-1.18,3.09-1.18,1.09,0,1.97.33,2.63,1,.67.61,1,1.42,1,2.45,0,1.21-.42,2.21-1.27,2.99-.78.79-1.79,1.19-2.99,1.19ZM1927,849.3c5.63,0,10.51,1.79,14.62,5.36l-2.82,3.18c-1.81-1.39-3.66-2.42-5.54-3.09-1.88-.66-3.97-1-6.27-1-3.39,0-6.12.72-8.18,2.18-2.06,1.4-3.09,3.33-3.09,5.82,0,2.06.76,3.76,2.27,5.09,1.57,1.27,4.3,2.48,8.18,3.63,4.66,1.45,8.02,3.24,10.08,5.36,2.12,2.12,3.18,4.91,3.18,8.36,0,4.42-1.66,7.96-4.99,10.63-3.33,2.67-7.82,4-13.45,4-3.7,0-6.91-.58-9.63-1.73-2.67-1.15-5.06-2.72-7.18-4.72l3-3.09c2.06,1.7,4.18,2.97,6.36,3.82,2.18.85,4.67,1.27,7.45,1.27,4.12,0,7.3-.88,9.54-2.64,2.3-1.81,3.46-4.18,3.46-7.08,0-2.54-.79-4.51-2.36-5.91-1.51-1.39-4.36-2.75-8.54-4.08-4.66-1.45-7.97-3.15-9.91-5.09-1.88-2-2.82-4.51-2.82-7.54,0-2.3.67-4.42,2-6.36,1.34-1.94,3.24-3.48,5.73-4.64,2.54-1.15,5.51-1.73,8.9-1.73ZM2007.25,834.58c3.39,0,6.42.51,9.09,1.54s5.18,2.6,7.54,4.72l-3.46,3.09c-2.06-1.69-4.08-2.9-6.09-3.63-2-.72-4.36-1.09-7.08-1.09-5.45,0-10.06,1.76-13.81,5.27-3.7,3.52-6.45,8-8.26,13.45-1.76,5.45-2.64,11.08-2.64,16.89,0,6.48,1.42,11.33,4.27,14.54,2.84,3.15,6.93,4.72,12.27,4.72,4.72,0,9.18-1.09,13.36-3.27l3.18-21.99h-11.99l-.09-4.64h18.08l-4,29.35c-5.93,3.51-12.29,5.27-19.08,5.27s-12.11-2.09-15.99-6.27c-3.82-4.24-5.72-10.36-5.72-18.35,0-6.42,1.12-12.66,3.36-18.71,2.3-6.12,5.75-11.11,10.36-14.99,4.6-3.94,10.18-5.9,16.72-5.9ZM2057.61,849.3c1.75,0,3.27.21,4.54.63l-1.45,5c-1.09-.36-2.36-.55-3.82-.55-3.33,0-6.21,1.36-8.63,4.09-2.36,2.72-4.57,6.81-6.63,12.26l-3.91,27.07h-5.27l6.72-47.52h4.55l-1.18,11.54c3.69-8.36,8.72-12.54,15.08-12.54ZM2078.7,898.81c-3.57,0-6.36-1-8.36-3-1.94-2-2.9-4.81-2.9-8.45,0-1.03.09-2.11.27-3.27l4.72-33.8h5.27l-4.72,33.62c-.12.73-.18,1.7-.18,2.9,0,5.09,2.3,7.63,6.91,7.63,3.33,0,6.42-1.36,9.27-4.09,2.9-2.78,5.51-6.45,7.81-10.99l4.09-29.08h5.27l-6.73,47.52h-4.36l1.27-12.08c-2.18,4.06-4.75,7.27-7.72,9.63-2.91,2.3-6.21,3.46-9.91,3.46ZM2125.32,850.29h4.54l-.45,6.45c4.6-4.96,9.69-7.45,15.26-7.45,4.55,0,8.06,1.54,10.54,4.63,2.54,3.09,3.82,7.54,3.82,13.36,0,4.85-.82,9.69-2.45,14.54-1.57,4.78-4.21,8.81-7.9,12.08-3.63,3.27-8.33,4.91-14.08,4.91-3.51,0-7.06-.64-10.63-1.91l-2.73,18.99-5.27.73,9.36-66.33ZM2134.77,894.36c4.42,0,8.05-1.42,10.9-4.27,2.85-2.9,4.87-6.45,6.09-10.63,1.27-4.18,1.91-8.33,1.91-12.45,0-4.48-.88-7.81-2.64-9.99-1.75-2.18-4.24-3.27-7.45-3.27-2.85,0-5.39.7-7.64,2.09-2.24,1.34-4.54,3.27-6.91,5.82l-4.27,30.8c1.64.66,3.21,1.15,4.72,1.45s3.27.46,5.27.46ZM2177.22,850.29h4.54l-.45,6.45c4.6-4.96,9.69-7.45,15.26-7.45,4.54,0,8.05,1.54,10.53,4.63,2.55,3.09,3.82,7.54,3.82,13.36,0,4.85-.82,9.69-2.45,14.54-1.57,4.78-4.21,8.81-7.9,12.08-3.63,3.27-8.33,4.91-14.08,4.91-3.51,0-7.06-.64-10.63-1.91l-2.73,18.99-5.27.73,9.36-66.33ZM2186.67,894.36c4.42,0,8.06-1.42,10.9-4.27,2.85-2.9,4.87-6.45,6.09-10.63,1.27-4.18,1.91-8.33,1.91-12.45,0-4.48-.88-7.81-2.64-9.99-1.75-2.18-4.23-3.27-7.45-3.27-2.85,0-5.39.7-7.64,2.09-2.24,1.34-4.54,3.27-6.91,5.82l-4.27,30.8c1.64.66,3.21,1.15,4.72,1.45s3.27.46,5.27.46ZM2259.93,860.74c0,5.82-2.85,10.14-8.54,12.99-5.69,2.79-13.78,4.57-24.26,5.36v.55c0,4.96,1.06,8.63,3.18,10.99,2.18,2.36,5.15,3.54,8.9,3.54,2.49,0,4.76-.36,6.82-1.09,2.12-.78,4.33-2,6.63-3.63l2.36,3.72c-2.54,1.88-5.15,3.31-7.81,4.27-2.6.91-5.39,1.36-8.36,1.36-5.45,0-9.69-1.67-12.72-5-3.03-3.33-4.54-8.03-4.54-14.08,0-4.79.85-9.51,2.54-14.17,1.76-4.66,4.45-8.54,8.09-11.63,3.7-3.09,8.24-4.63,13.63-4.63,4.42,0,7.87,1.09,10.36,3.27,2.48,2.12,3.72,4.85,3.72,8.18ZM2245.84,853.65c-5.45,0-9.72,2.09-12.81,6.27-3.03,4.18-4.9,9.18-5.63,14.99,9.09-.73,15.87-2.18,20.35-4.36,4.49-2.18,6.72-5.39,6.72-9.63,0-2.06-.72-3.78-2.18-5.18-1.45-1.4-3.6-2.09-6.45-2.09Z"/>
  <path class="cls-5" d="M471.57,216.21l168.22,97.14c9.94,5.79,18.2,14.08,23.95,24.05,5.75,9.97,8.79,21.27,8.81,32.78v210.22c0,1.82-.2,3.65-.36,5.43l117.32,67.74c9.37-23.26,14.2-48.1,14.24-73.18v-210.22c-.04-34.56-9.14-68.5-26.42-98.43-17.27-29.93-42.09-54.8-71.99-72.13l-182.02-105.07c-16.18-9.28-33.61-16.19-51.76-20.51v142.16Z"/>
  <path class="cls-4" d="M623.81,646.52l-166.07,95.91c-9.98,5.73-21.29,8.75-32.8,8.75s-22.82-3.02-32.8-8.75l-182.02-105.11c-9.96-5.77-18.23-14.06-23.98-24.02-5.76-9.97-8.8-21.27-8.82-32.78v-210.22c0-11.53,3.03-22.87,8.79-32.86,5.76-10,14.04-18.3,24.02-24.09l182.14-105.03c.87-.52,1.78-.83,2.66-1.31V70.81c-24.01,3.66-47.14,11.73-68.22,23.8l-182.06,105.11c-29.89,17.33-54.71,42.2-71.97,72.13-17.26,29.93-26.36,63.87-26.39,98.42v210.22c.02,34.55,9.12,68.5,26.38,98.43,17.26,29.93,42.09,54.81,71.98,72.13l182.06,105.11c29.91,17.24,63.84,26.3,98.37,26.26,34.54.04,68.48-9.02,98.41-26.26l182.02-105.11c15.52-9.03,29.71-20.18,42.16-33.12l-123.83-71.4Z"/>
</svg>